<svg width="557" height="193" viewBox="0 0 557 193" fill="none" xmlns="http://www.w3.org/2000/svg">
<path d="M556.906 64.275C556.906 65.575 556.706 66.875 556.306 68.075C555.906 69.175 555.306 70.175 554.506 71.075C553.706 71.875 552.806 72.575 551.706 73.075C550.706 73.475 549.606 73.775 548.506 73.775C547.806 73.775 547.106 73.675 546.406 73.475C545.506 73.275 544.406 72.875 543.006 72.475C541.906 72.075 540.806 71.875 539.706 71.675C538.706 71.475 537.606 71.375 536.606 71.375C533.606 71.375 530.606 71.975 527.906 73.075C524.806 74.375 521.806 76.075 519.206 78.175C516.206 80.475 513.506 83.175 511.106 86.175C508.606 89.275 506.406 92.575 504.606 96.175C502.806 99.675 501.306 103.375 500.306 107.175C499.406 110.775 498.906 114.575 498.906 118.275V180.375C498.906 181.575 498.706 182.875 498.206 183.975C497.806 185.075 497.106 186.075 496.206 186.875C495.406 187.675 494.406 188.375 493.206 188.875C490.906 189.775 488.306 189.775 485.906 188.875C484.806 188.475 483.806 187.775 482.906 186.875C482.006 186.075 481.406 185.075 480.906 183.975C480.406 182.775 480.206 181.575 480.206 180.375V67.575C480.206 66.375 480.406 65.075 480.906 63.975C481.306 62.875 482.006 61.875 482.906 61.075C483.706 60.275 484.706 59.575 485.906 59.075C488.206 58.175 490.806 58.175 493.206 59.075C494.306 59.475 495.306 60.175 496.206 61.075C497.106 61.875 497.706 62.875 498.206 63.975C498.706 65.175 498.906 66.375 498.906 67.575V82.275C502.606 75.475 507.606 69.475 513.706 64.675C517.606 61.475 522.106 58.975 526.906 57.275C531.806 55.575 537.006 54.675 542.306 54.675C544.006 54.675 545.806 54.875 547.506 55.275C549.106 55.575 550.706 56.175 552.106 56.875C552.906 57.275 553.606 57.675 554.206 58.275C554.806 58.775 555.306 59.275 555.706 59.975C556.106 60.575 556.406 61.275 556.706 62.075C556.806 62.675 556.906 63.475 556.906 64.275ZM458.406 60.975C457.606 60.175 456.606 59.475 455.406 58.975C453.106 58.075 450.506 58.075 448.106 58.975C447.006 59.375 446.006 60.075 445.106 60.975C444.206 61.775 443.606 62.775 443.106 63.875C442.606 65.075 442.406 66.275 442.406 67.475V138.375C442.506 143.575 441.706 148.675 440.106 153.575C438.706 157.775 436.306 161.575 433.206 164.675C430.006 167.675 426.206 169.975 422.006 171.375C417.206 172.975 412.106 173.675 407.006 173.575C402.006 173.675 397.006 172.875 392.306 171.375C388.206 169.975 384.406 167.675 381.306 164.675C378.206 161.575 375.906 157.775 374.506 153.575C372.906 148.675 372.206 143.475 372.306 138.375V67.575C372.306 66.375 372.106 65.075 371.606 63.975C371.206 62.875 370.506 61.875 369.606 61.075C368.806 60.275 367.806 59.575 366.606 59.075C364.306 58.175 361.706 58.175 359.306 59.075C358.206 59.475 357.206 60.175 356.306 61.075C355.406 61.875 354.806 62.875 354.306 63.975C353.806 65.175 353.606 66.375 353.606 67.575V138.475C353.506 146.075 354.706 153.675 357.206 160.975C359.406 167.275 363.106 172.875 367.806 177.575C372.606 182.175 378.306 185.675 384.606 187.875C391.806 190.275 399.306 191.475 406.806 191.275C414.406 191.375 422.006 190.275 429.206 187.875C435.506 185.775 441.306 182.275 446.206 177.675C451.006 173.075 454.706 167.375 456.906 161.075C459.406 153.875 460.606 146.275 460.506 138.575V67.575C460.506 66.375 460.306 65.075 459.806 63.975C459.906 62.775 459.306 61.775 458.406 60.975ZM104.706 60.975C103.906 60.175 102.906 59.475 101.706 58.975C99.4058 58.075 96.8058 58.075 94.4058 58.975C93.3058 59.375 92.3058 60.075 91.4058 60.975C90.5058 61.775 89.9058 62.775 89.4058 63.875C88.9058 65.075 88.7058 66.275 88.7058 67.475V138.375C88.8058 143.575 88.0058 148.675 86.4058 153.575C85.0058 157.775 82.6058 161.575 79.5058 164.675C76.3058 167.675 72.5058 169.975 68.3058 171.375C63.5058 172.975 58.4058 173.675 53.3058 173.575C48.3058 173.675 43.3058 172.875 38.6058 171.375C34.5058 169.975 30.7058 167.675 27.6058 164.675C24.5058 161.575 22.2058 157.775 20.8058 153.575C19.2058 148.675 18.5058 143.475 18.6058 138.375V67.575C18.6058 66.375 18.4058 65.075 17.9058 63.975C17.5058 62.875 16.8058 61.875 15.9058 61.075C15.1058 60.275 14.1058 59.575 12.9058 59.075C11.7058 58.575 10.5058 58.375 9.30577 58.375C8.10577 58.375 6.80577 58.575 5.70577 59.075C4.60577 59.475 3.60577 60.175 2.70577 61.075C1.80577 61.875 1.20577 62.875 0.70577 63.975C0.20577 65.175 0.00576923 66.375 0.00576923 67.575V138.475C-0.0942308 146.075 1.10577 153.675 3.60577 160.975C5.80577 167.275 9.50577 172.875 14.2058 177.575C19.0058 182.175 24.7058 185.675 31.0058 187.875C38.2058 190.275 45.7058 191.475 53.2058 191.275C60.8058 191.375 68.4058 190.275 75.6058 187.875C81.9058 185.775 87.7058 182.275 92.6058 177.675C97.4058 173.075 101.106 167.375 103.306 161.075C105.806 153.875 107.006 146.275 106.906 138.575V67.575C106.906 66.375 106.706 65.075 106.206 63.975C106.206 62.775 105.606 61.775 104.706 60.975ZM323.306 71.375C319.506 66.475 314.506 62.675 308.806 60.275C303.006 57.775 296.106 56.475 288.306 56.475C284.006 56.475 279.606 57.075 275.406 58.275C271.006 59.575 266.806 61.375 262.806 63.575C259.606 65.375 256.606 67.475 253.806 69.875C251.106 72.175 248.706 74.675 246.506 77.375V9.175C246.506 7.975 246.306 6.675 245.806 5.575C245.406 4.475 244.706 3.475 243.806 2.675C242.906 1.775 241.906 1.175 240.806 0.675C238.506 -0.225 235.906 -0.225 233.506 0.675C232.406 1.075 231.406 1.775 230.506 2.675C229.606 3.475 229.006 4.475 228.506 5.575C228.006 6.775 227.806 7.975 227.806 9.175V180.175C227.806 181.375 228.006 182.675 228.506 183.775C228.906 184.875 229.606 185.875 230.506 186.675C231.306 187.475 232.306 188.175 233.506 188.675C235.806 189.575 238.406 189.575 240.806 188.675C241.906 188.275 242.906 187.575 243.806 186.675C244.706 185.875 245.306 184.875 245.806 183.775C246.306 182.575 246.506 181.375 246.506 180.175V108.975C246.506 105.975 247.006 102.875 247.906 99.975C248.906 96.975 250.206 94.175 252.006 91.675C253.806 88.975 256.006 86.575 258.406 84.375C260.906 82.175 263.606 80.275 266.606 78.775C269.506 77.175 272.706 75.975 275.906 75.175C279.106 74.375 282.506 73.975 285.806 73.975C290.406 73.875 295.106 74.675 299.406 76.375C303.106 77.875 306.406 80.375 308.906 83.575C311.506 86.975 313.406 90.775 314.506 94.875C315.806 99.475 316.406 104.275 316.306 109.075V180.175C316.306 181.375 316.506 182.675 317.006 183.775C317.406 184.875 318.106 185.875 319.006 186.675C319.806 187.475 320.806 188.175 322.006 188.675C324.306 189.575 326.906 189.575 329.306 188.675C330.406 188.275 331.406 187.575 332.306 186.675C333.206 185.875 333.806 184.875 334.306 183.775C334.806 182.575 335.006 181.375 335.006 180.175V108.975C335.106 101.875 334.106 94.875 332.206 88.075C330.106 82.075 327.206 76.375 323.306 71.375ZM211.506 134.175C209.606 131.675 207.506 129.375 205.006 127.375C202.506 125.375 199.806 123.675 196.906 122.375C193.706 120.875 190.406 119.575 187.106 118.475C183.406 117.275 179.406 116.075 175.006 114.975C170.106 113.775 165.206 112.275 160.506 110.575C156.806 109.275 153.306 107.575 150.006 105.575C147.506 104.175 145.506 102.175 144.006 99.675C142.606 97.175 141.806 94.475 141.706 91.575C141.606 88.475 142.306 85.475 143.606 82.775C144.906 80.175 146.906 77.975 149.306 76.475C152.006 74.675 155.006 73.375 158.206 72.575C161.606 71.675 165.206 71.275 168.706 71.275C171.706 71.275 174.706 71.575 177.606 72.075C180.406 72.575 183.206 73.475 185.906 74.575C188.506 75.675 191.006 77.075 193.306 78.775C195.606 80.475 197.806 82.375 199.706 84.575C200.506 85.375 201.406 85.975 202.406 86.475C203.306 86.875 204.406 87.075 205.406 87.075C206.506 87.075 207.506 86.875 208.506 86.575C209.406 86.275 210.306 85.775 211.006 85.175C212.006 84.375 212.706 83.275 213.306 82.175C213.806 81.075 214.106 79.875 214.106 78.675C214.106 77.475 213.906 76.275 213.406 75.075C212.906 74.075 212.206 73.075 211.406 72.375C208.806 69.375 205.806 66.675 202.506 64.375C199.306 62.075 195.706 60.275 192.006 58.875C188.406 57.475 184.606 56.375 180.806 55.675C177.106 54.975 173.406 54.575 169.706 54.575C165.606 54.575 161.506 54.975 157.406 55.775C153.606 56.475 150.006 57.675 146.506 59.275C143.206 60.775 140.106 62.675 137.206 64.975C134.506 67.175 132.106 69.675 130.106 72.475C128.106 75.275 126.606 78.375 125.506 81.675C124.506 84.975 124.006 88.475 124.006 91.975C123.906 97.175 125.006 102.375 127.206 107.175C129.306 111.575 132.606 115.375 136.606 118.175C141.106 121.275 145.906 123.875 150.906 125.975C157.006 128.475 163.406 130.575 169.806 132.175C174.206 133.275 178.506 134.575 182.706 136.175C186.106 137.475 189.306 139.075 192.406 140.975C194.806 142.475 196.706 144.475 198.006 146.975C200.506 152.375 200.506 158.675 197.806 164.075C196.306 166.675 194.206 168.875 191.706 170.475C188.806 172.275 185.706 173.675 182.406 174.575C178.906 175.475 175.206 175.975 171.606 175.875C164.206 175.975 156.806 174.375 150.106 171.075C143.406 167.675 137.706 162.775 133.206 156.775C132.306 155.875 131.206 155.075 130.006 154.475C128.906 153.975 127.706 153.775 126.506 153.775C125.506 153.775 124.606 153.875 123.706 154.275C122.906 154.575 122.106 155.075 121.506 155.675C120.906 155.975 120.306 156.375 119.806 156.875C119.306 157.275 118.906 157.775 118.606 158.275C118.206 158.775 118.006 159.375 117.806 160.075C117.606 160.775 117.506 161.375 117.506 162.075C117.506 163.075 117.706 164.075 118.106 164.975C118.606 166.275 119.206 167.475 119.906 168.575C125.706 176.075 133.106 182.075 141.706 186.175C150.006 190.075 159.506 192.075 170.006 192.075C176.206 192.175 182.406 191.275 188.306 189.575C193.706 187.975 198.806 185.475 203.406 182.075C212.306 175.875 217.506 165.575 217.206 154.675C217.206 150.775 216.806 146.975 215.806 143.275C214.806 139.875 213.406 136.875 211.506 134.175Z" fill="#29308F"/>
</svg>
