<?xml version="1.0" encoding="UTF-8"?>
<svg id="Layer_1" data-name="Layer 1" xmlns="http://www.w3.org/2000/svg" viewBox="0 0 100 100">
  <defs>
    <style>
      .cls-1 {
        fill: #fff;
      }

      .cls-2 {
        fill: #2c358c;
      }
    </style>
  </defs>
  <circle class="cls-2" cx="50" cy="50" r="49"/>
  <path class="cls-1" d="m69.54,27.67c-.3-.3-.69-.57-1.14-.76-.88-.34-1.87-.34-2.78,0-.42.15-.8.42-1.14.76-.34.3-.57.69-.76,1.11-.19.46-.27.91-.27,1.37v27.03c.04,1.98-.27,3.93-.88,5.79-.53,1.6-1.45,3.05-2.63,4.23-1.22,1.14-2.67,2.02-4.27,2.55-1.83.61-3.77.88-5.72.84-1.91.04-3.81-.27-5.6-.84-1.56-.53-3.01-1.41-4.19-2.55-1.18-1.18-2.06-2.63-2.59-4.23-.61-1.87-.88-3.85-.84-5.79v-26.99c0-.46-.08-.95-.27-1.37-.15-.42-.42-.8-.76-1.11-.3-.3-.69-.57-1.14-.76s-.91-.27-1.37-.27-.95.08-1.37.27c-.42.15-.8.42-1.14.76-.34.3-.57.69-.76,1.11-.19.46-.27.91-.27,1.37v27.03c-.04,2.9.42,5.79,1.37,8.58.84,2.4,2.25,4.54,4.04,6.33,1.83,1.75,4,3.09,6.4,3.93,2.74.91,5.6,1.37,8.46,1.3,2.9.04,5.79-.38,8.54-1.3,2.4-.8,4.61-2.13,6.48-3.89,1.83-1.75,3.24-3.93,4.08-6.33.95-2.74,1.41-5.64,1.37-8.58v-27.07c0-.46-.08-.95-.27-1.37,0-.46-.23-.84-.57-1.14Z"/>
</svg>