<?xml version="1.0" encoding="UTF-8"?>
<svg id="Layer_1" data-name="Layer 1" xmlns="http://www.w3.org/2000/svg" viewBox="0 0 600 300">
  <defs>
    <style>
      .cls-1 {
        fill: #2b378b;
      }
    </style>
  </defs>
  <path class="cls-1" d="m566.79,64.54c0-7.76,6.25-13.94,13.94-13.94s13.94,6.18,13.94,13.94-6.18,13.94-13.94,13.94-13.94-6.25-13.94-13.94Zm1.84,0c0,6.64,5.39,12.1,12.1,12.1s12.03-5.46,12.03-12.1-5.39-12.03-12.03-12.03-12.1,5.33-12.1,12.03Zm15.91,8.02l-4.14-6.31h-2.89v6.31h-2.1v-15.98h6.51c2.76,0,5.06,1.91,5.06,4.87,0,3.55-3.16,4.73-4.08,4.73l4.28,6.38h-2.63Zm-7.04-14.14v5.92h4.41c1.64,0,2.89-1.25,2.89-2.89,0-1.78-1.25-3.02-2.89-3.02h-4.41Z"/>
  <path class="cls-1" d="m561.84,75.74c0,1.3-.2,2.6-.6,3.8-.4,1.1-1,2.1-1.8,3-.8.8-1.7,1.5-2.8,2-1,.4-2.1.7-3.2.7-.7,0-1.4-.1-2.1-.3-.9-.2-2-.6-3.4-1-1.1-.4-2.2-.6-3.3-.8-1-.2-2.1-.3-3.1-.3-3,0-6,.6-8.7,1.7-3.1,1.3-6.1,3-8.7,5.1-3,2.3-5.7,5-8.1,8-2.5,3.1-4.7,6.4-6.5,10-1.8,3.5-3.3,7.2-4.3,11-.9,3.6-1.4,7.4-1.4,11.1v62.08c0,1.2-.2,2.5-.7,3.6-.4,1.1-1.1,2.1-2,2.9-.8.8-1.8,1.5-3,2-2.3.9-4.9.9-7.3,0-1.1-.4-2.1-1.1-3-2-.9-.8-1.5-1.8-2-2.9-.5-1.2-.7-2.4-.7-3.6v-112.77c0-1.2.2-2.5.7-3.6.4-1.1,1.1-2.1,2-2.9.8-.8,1.8-1.5,3-2,2.3-.9,4.9-.9,7.3,0,1.1.4,2.1,1.1,3,2,.9.8,1.5,1.8,2,2.9.5,1.2.7,2.4.7,3.6v14.7c3.7-6.8,8.7-12.8,14.8-17.59,3.9-3.2,8.4-5.7,13.2-7.4,4.9-1.7,10.1-2.6,15.4-2.6,1.7,0,3.5.2,5.2.6,1.6.3,3.2.9,4.6,1.6.8.4,1.5.8,2.1,1.4.6.5,1.1,1,1.5,1.7.4.6.7,1.3,1,2.1.1.6.2,1.4.2,2.2Zm-98.47-3.3c-.8-.8-1.8-1.5-3-2-2.3-.9-4.9-.9-7.3,0-1.1.4-2.1,1.1-3,2-.9.8-1.5,1.8-2,2.9-.5,1.2-.7,2.4-.7,3.6v70.88c.1,5.2-.7,10.3-2.3,15.2-1.4,4.2-3.8,8-6.9,11.1-3.2,3-7,5.3-11.2,6.7-4.8,1.6-9.9,2.3-15,2.2-5,.1-10-.7-14.7-2.2-4.1-1.4-7.9-3.7-11-6.7-3.1-3.1-5.4-6.9-6.8-11.1-1.6-4.9-2.3-10.1-2.2-15.2v-70.78c0-1.2-.2-2.5-.7-3.6-.4-1.1-1.1-2.1-2-2.9-.8-.8-1.8-1.5-3-2-2.3-.9-4.9-.9-7.3,0-1.1.4-2.1,1.1-3,2-.9.8-1.5,1.8-2,2.9-.5,1.2-.7,2.4-.7,3.6v70.88c-.1,7.6,1.1,15.2,3.6,22.49,2.2,6.3,5.9,11.9,10.6,16.6,4.8,4.6,10.5,8.1,16.8,10.3,7.2,2.4,14.7,3.6,22.19,3.4,7.6.1,15.2-1,22.39-3.4,6.3-2.1,12.1-5.6,17-10.2,4.8-4.6,8.5-10.3,10.7-16.6,2.5-7.2,3.7-14.8,3.6-22.49v-70.98c0-1.2-.2-2.5-.7-3.6.1-1.2-.5-2.2-1.4-3Zm-353.6,0c-.8-.8-1.8-1.5-3-2-2.3-.9-4.9-.9-7.3,0-1.1.4-2.1,1.1-3,2-.9.8-1.5,1.8-2,2.9-.5,1.2-.7,2.4-.7,3.6v70.88c.1,5.2-.7,10.3-2.3,15.2-1.4,4.2-3.8,8-6.9,11.1-3.2,3-7,5.3-11.2,6.7-4.8,1.6-9.9,2.3-15,2.2-5,.1-10-.7-14.7-2.2-4.1-1.4-7.9-3.7-11-6.7-3.1-3.1-5.4-6.9-6.8-11.1-1.6-4.9-2.3-10.1-2.2-15.2v-70.78c0-1.2-.2-2.5-.7-3.6-.4-1.1-1.1-2.1-2-2.9-.8-.8-1.8-1.5-3-2s-2.4-.7-3.6-.7-2.5.2-3.6.7c-1.1.4-2.1,1.1-3,2-.9.8-1.5,1.8-2,2.9-.5,1.2-.7,2.4-.7,3.6v70.88c-.1,7.6,1.1,15.2,3.6,22.49,2.2,6.3,5.9,11.9,10.6,16.6,4.8,4.6,10.5,8.1,16.8,10.3,7.2,2.4,14.7,3.6,22.19,3.4,7.6.1,15.2-1,22.39-3.4,6.3-2.1,12.1-5.6,17-10.2,4.8-4.6,8.5-10.3,10.7-16.6,2.5-7.2,3.7-14.8,3.6-22.49v-70.98c0-1.2-.2-2.5-.7-3.6,0-1.2-.6-2.2-1.5-3Zm218.54,10.4c-3.8-4.9-8.8-8.7-14.5-11.1-5.8-2.5-12.7-3.8-20.49-3.8-4.3,0-8.7.6-12.9,1.8-4.4,1.3-8.6,3.1-12.6,5.3-3.2,1.8-6.2,3.9-9,6.3-2.7,2.3-5.1,4.8-7.3,7.5V20.66c0-1.2-.2-2.5-.7-3.6-.4-1.1-1.1-2.1-2-2.9-.9-.9-1.9-1.5-3-2-2.3-.9-4.9-.9-7.3,0-1.1.4-2.1,1.1-3,2-.9.8-1.5,1.8-2,2.9-.5,1.2-.7,2.4-.7,3.6v170.95c0,1.2.2,2.5.7,3.6.4,1.1,1.1,2.1,2,2.9.8.8,1.8,1.5,3,2,2.3.9,4.9.9,7.3,0,1.1-.4,2.1-1.1,3-2,.9-.8,1.5-1.8,2-2.9.5-1.2.7-2.4.7-3.6v-71.18c0-3,.5-6.1,1.4-9,1-3,2.3-5.8,4.1-8.3,1.8-2.7,4-5.1,6.4-7.3,2.5-2.2,5.2-4.1,8.2-5.6,2.9-1.6,6.1-2.8,9.3-3.6s6.6-1.2,9.9-1.2c4.6-.1,9.3.7,13.6,2.4,3.7,1.5,7,4,9.5,7.2,2.6,3.4,4.5,7.2,5.6,11.3,1.3,4.6,1.9,9.4,1.8,14.2v71.08c0,1.2.2,2.5.7,3.6.4,1.1,1.1,2.1,2,2.9.8.8,1.8,1.5,3,2,2.3.9,4.9.9,7.3,0,1.1-.4,2.1-1.1,3-2,.9-.8,1.5-1.8,2-2.9.5-1.2.7-2.4.7-3.6v-71.18c.1-7.1-.9-14.1-2.8-20.89-2.1-6-5-11.7-8.9-16.7Zm-111.77,62.78c-1.9-2.5-4-4.8-6.5-6.8s-5.2-3.7-8.1-5c-3.2-1.5-6.5-2.8-9.8-3.9-3.7-1.2-7.7-2.4-12.1-3.5-4.9-1.2-9.8-2.7-14.5-4.4-3.7-1.3-7.2-3-10.5-5-2.5-1.4-4.5-3.4-6-5.9-1.4-2.5-2.2-5.2-2.3-8.1-.1-3.1.6-6.1,1.9-8.8,1.3-2.6,3.3-4.8,5.7-6.3,2.7-1.8,5.7-3.1,8.9-3.9,3.4-.9,7-1.3,10.5-1.3,3,0,6,.3,8.9.8,2.8.5,5.6,1.4,8.3,2.5,2.6,1.1,5.1,2.5,7.4,4.2,2.3,1.7,4.5,3.6,6.4,5.8.8.8,1.7,1.4,2.7,1.9.9.4,2,.6,3,.6,1.1,0,2.1-.2,3.1-.5.9-.3,1.8-.8,2.5-1.4,1-.8,1.7-1.9,2.3-3,.5-1.1.8-2.3.8-3.5s-.2-2.4-.7-3.6c-.5-1-1.2-2-2-2.7-2.6-3-5.6-5.7-8.9-8-3.2-2.3-6.8-4.1-10.5-5.5-3.6-1.4-7.4-2.5-11.2-3.2-3.7-.7-7.4-1.1-11.1-1.1-4.1,0-8.2.4-12.3,1.2-3.8.7-7.4,1.9-10.9,3.5-3.3,1.5-6.4,3.4-9.3,5.7-2.7,2.2-5.1,4.7-7.1,7.5s-3.5,5.9-4.6,9.2c-1,3.3-1.5,6.8-1.5,10.3-.1,5.2,1,10.4,3.2,15.2,2.1,4.4,5.4,8.2,9.4,11,4.5,3.1,9.3,5.7,14.3,7.8,6.1,2.5,12.5,4.6,18.89,6.2,4.4,1.1,8.7,2.4,12.9,4,3.4,1.3,6.6,2.9,9.7,4.8,2.4,1.5,4.3,3.5,5.6,6,2.5,5.4,2.5,11.7-.2,17.1-1.5,2.6-3.6,4.8-6.1,6.4-2.9,1.8-6,3.2-9.3,4.1-3.5.9-7.2,1.4-10.8,1.3-7.4.1-14.8-1.5-21.49-4.8-6.7-3.4-12.4-8.3-16.9-14.3-.9-.9-2-1.7-3.2-2.3-1.1-.5-2.3-.7-3.5-.7-1,0-1.9.1-2.8.5-.8.3-1.6.8-2.2,1.4-.6.3-1.2.7-1.7,1.2-.5.4-.9.9-1.2,1.4-.4.5-.6,1.1-.8,1.8-.2.7-.3,1.3-.3,2,0,1,.2,2,.6,2.9.5,1.3,1.1,2.5,1.8,3.6,5.8,7.5,13.2,13.5,21.79,17.59,8.3,3.9,17.79,5.9,28.29,5.9,6.2.1,12.4-.8,18.29-2.5,5.4-1.6,10.5-4.1,15.1-7.5,8.9-6.2,14.1-16.5,13.8-27.39,0-3.9-.4-7.7-1.4-11.4-1-3.4-2.4-6.4-4.3-9.1Z"/>
  <path d="m42.1,241.4l-15.3,37.2h-1.4l-15.3-37.2v37.2h-3.6v-41.9h5.3l14.3,34.8,14.2-34.8h5.4v41.9h-3.6v-37.2Z"/>
  <path d="m75.3,275c-2.7,3-6.1,4.3-10.3,4.3-5.2,0-10.6-3.6-10.6-10.1s5.3-10.1,10.6-10.1c4.2,0,7.7,1.4,10.3,4.3v-6.2c0-4.5-3.6-7-8.2-7-3.8,0-6.7,1.3-9.5,4.5l-1.8-2.3c3.1-3.4,6.7-5.1,11.7-5.1,6.2,0,11.1,3,11.1,9.7v21.4h-3.3v-3.4Zm0-9.1c-2.1-2.8-5.5-4.2-9.2-4.2-5,0-8.3,3.2-8.3,7.5s3.3,7.5,8.3,7.5c3.6,0,7-1.4,9.2-4.1v-6.7Z"/>
  <path d="m97.7,264.1l-5.7,5.3v9.1h-3.3v-41.9h3.3v28.9l17.9-17.3h4.3l-14.1,13.7,14.1,16.7h-4.4l-12.1-14.5Z"/>
  <path d="m132,247.5c9.2,0,14.3,7.4,14.3,16.1v.9h-25.3c.3,6.6,4.7,12.1,11.9,12.1,3.8,0,7.4-1.4,9.9-4.2l1.7,2.1c-3,3.1-6.9,4.9-11.9,4.9-8.9,0-15.2-6.6-15.2-16,0-8.8,6.2-15.9,14.6-15.9Zm-11,14.3h22c-.1-5.2-3.5-11.6-11.1-11.6-7.1.1-10.7,6.4-10.9,11.6Z"/>
  <path d="m172.3,287.9c2,0,3.4-.8,4.6-3.7l2.4-5.4-12.8-30.6h3.6l11.1,26.5,10.9-26.5h3.7l-15.7,37c-1.6,3.8-4.2,5.7-7.8,5.7-1,0-2.4-.2-3.2-.4l.6-3c.6.2,1.8.4,2.6.4Z"/>
  <path d="m199.5,263.4c0-8.9,5.7-15.9,14.6-15.9s14.6,7,14.6,15.9-5.7,16-14.6,16c-8.8-.1-14.6-7.2-14.6-16Zm25.8,0c0-6.7-4-12.9-11.1-12.9s-11.1,6.2-11.1,12.9,4,13,11.1,13,11.1-6.3,11.1-13Z"/>
  <path d="m257.7,274.1c-2.5,2.8-6.5,5.2-10.9,5.2-6.2,0-9.6-2.9-9.6-9.7v-21.4h3.3v20.6c0,5.9,3,7.5,7.4,7.5,3.9,0,7.9-2.3,9.9-5v-23.1h3.3v30.4h-3.3v-4.5h-.1Z"/>
  <path d="m271.1,248.2h3.3v5.2c2.6-3.4,6-5.8,10.2-5.8v3.6c-.6-.1-1-.1-1.6-.1-3.1,0-7.2,2.8-8.6,5.4v22.1h-3.3v-30.4Z"/>
  <path d="m324.9,252.6l-8.5,26h-3.1l-9.9-30.4h3.5l8,25.8,8.5-25.8h2.8l8.5,25.8,8-25.8h3.5l-9.9,30.4h-3.1l-8.3-26Z"/>
  <path d="m350.8,263.4c0-8.9,5.7-15.9,14.6-15.9s14.6,7,14.6,15.9-5.7,16-14.6,16c-8.9-.1-14.6-7.2-14.6-16Zm25.7,0c0-6.7-4-12.9-11.1-12.9s-11.1,6.2-11.1,12.9,4,13,11.1,13,11.1-6.3,11.1-13Z"/>
  <path d="m388.4,248.2h3.3v5.2c2.6-3.4,6-5.8,10.2-5.8v3.6c-.6-.1-1-.1-1.6-.1-3.1,0-7.2,2.8-8.6,5.4v22.1h-3.3v-30.4Z"/>
  <path d="m417.3,264.1l-5.7,5.3v9.1h-3.3v-41.9h3.3v28.9l17.9-17.3h4.3l-14.1,13.7,14.1,16.7h-4.4l-12.1-14.5Z"/>
  <path d="m457.4,251.1h-5v-2.9h5v-2.8c0-6,3.2-9.4,8.2-9.4,1.5,0,2.9.3,4.1.9l-1,2.6c-.8-.4-1.6-.7-2.8-.7-3.5,0-5.3,2.4-5.3,6.6v2.8h6.2v2.9h-6.2v27.5h-3.3v-27.5h.1Zm15.6-14.5h3.3v41.9h-3.3v-41.9Z"/>
  <path d="m484.7,263.4c0-8.9,5.7-15.9,14.6-15.9s14.6,7,14.6,15.9-5.7,16-14.6,16c-8.9-.1-14.6-7.2-14.6-16Zm25.7,0c0-6.7-4-12.9-11.1-12.9s-11.1,6.2-11.1,12.9,4,13,11.1,13,11.1-6.3,11.1-13Z"/>
  <path d="m539.9,252.6l-8.5,26h-3.1l-9.9-30.4h3.5l8,25.8,8.5-25.8h2.8l8.5,25.8,8-25.8h3.5l-9.9,30.4h-3.1l-8.3-26Z"/>
  <g>
    <path d="m574.3,237.7h-4.1v-1.4h9.9v1.4h-4.1v11.6h-1.6v-11.6h-.1Z"/>
    <path d="m593.3,238.4l-4.4,10.8h-.7l-4.4-10.8v10.8h-1.6v-13h2.3l4,9.9,4.1-9.9h2.3v13h-1.6v-10.8h0Z"/>
  </g>
</svg>